<?xml version="1.0" encoding="UTF-8" standalone="no"?>
<!DOCTYPE svg PUBLIC "-//W3C//DTD SVG 1.1//EN"
 "http://www.w3.org/Graphics/SVG/1.1/DTD/svg11.dtd">
<!-- Generated by graphviz version 14.1.5 (20260411.2331)
 -->
<!-- Title: model Pages: 1 -->
<svg width="184pt" height="1037pt"
 viewBox="0.00 0.00 184.00 1037.00" xmlns="http://www.w3.org/2000/svg" xmlns:xlink="http://www.w3.org/1999/xlink">
<g id="graph0" class="graph" transform="scale(0.746715 0.746715) rotate(0) translate(4 1384.75)">
<title>model</title>
<polygon fill="white" stroke="none" points="-4,4 -4,-1384.75 242,-1384.75 242,4 -4,4"/>
<g id="clust1" class="cluster">
<title>cluster_2</title>
<polygon fill="none" stroke="black" stroke-dasharray="5,2" points="8,-8 8,-1337.25 230,-1337.25 230,-8 8,-8"/>
<text xml:space="preserve" text-anchor="middle" x="33.62" y="-1321.85" font-family="Times New Roman,serif" font-size="12.00">ResNet</text>
</g>
<g id="clust2" class="cluster">
<title>cluster_3</title>
<polygon fill="none" stroke="black" stroke-dasharray="5,2" points="24,-843.75 24,-1009 214,-1009 214,-843.75 24,-843.75"/>
<text xml:space="preserve" text-anchor="middle" x="56.75" y="-993.6" font-family="Times New Roman,serif" font-size="12.00">Sequential</text>
</g>
<g id="clust3" class="cluster">
<title>cluster_4</title>
<polygon fill="none" stroke="black" stroke-dasharray="5,2" points="21,-670.5 21,-835.75 217,-835.75 217,-670.5 21,-670.5"/>
<text xml:space="preserve" text-anchor="middle" x="53.75" y="-820.35" font-family="Times New Roman,serif" font-size="12.00">Sequential</text>
</g>
<g id="clust4" class="cluster">
<title>cluster_5</title>
<polygon fill="none" stroke="black" stroke-dasharray="5,2" points="21,-497.25 21,-662.5 217,-662.5 217,-497.25 21,-497.25"/>
<text xml:space="preserve" text-anchor="middle" x="53.75" y="-647.1" font-family="Times New Roman,serif" font-size="12.00">Sequential</text>
</g>
<g id="clust5" class="cluster">
<title>cluster_6</title>
<polygon fill="none" stroke="black" stroke-dasharray="5,2" points="21,-324 21,-489.25 217,-489.25 217,-324 21,-324"/>
<text xml:space="preserve" text-anchor="middle" x="53.75" y="-473.85" font-family="Times New Roman,serif" font-size="12.00">Sequential</text>
</g>
<!-- 0 -->
<g id="node1" class="node">
<title>0</title>
<polygon fill="lightyellow" stroke="none" points="188.62,-1380.75 49.38,-1380.75 49.38,-1345.25 188.62,-1345.25 188.62,-1380.75"/>
<polygon fill="none" stroke="black" points="49.38,-1345.25 49.38,-1380.75 111.12,-1380.75 111.12,-1345.25 49.38,-1345.25"/>
<text xml:space="preserve" text-anchor="start" x="54.38" y="-1365.25" font-family="Linux libertine" font-size="10.00">input&#45;tensor</text>
<text xml:space="preserve" text-anchor="start" x="63.75" y="-1352.5" font-family="Linux libertine" font-size="10.00">depth:0</text>
<polygon fill="none" stroke="black" points="111.12,-1345.25 111.12,-1380.75 188.62,-1380.75 188.62,-1345.25 111.12,-1345.25"/>
<text xml:space="preserve" text-anchor="start" x="116.12" y="-1358.88" font-family="Linux libertine" font-size="10.00">(1, 3, 224, 224)</text>
</g>
<!-- 1 -->
<g id="node2" class="node">
<title>1</title>
<polygon fill="#c1ffc1" stroke="none" points="205.25,-1307 32.75,-1307 32.75,-1261.5 205.25,-1261.5 205.25,-1307"/>
<polygon fill="none" stroke="black" points="32.75,-1261.5 32.75,-1307 75.75,-1307 75.75,-1261.5 32.75,-1261.5"/>
<text xml:space="preserve" text-anchor="start" x="38.12" y="-1286.5" font-family="Linux libertine" font-size="10.00">Conv2d</text>
<text xml:space="preserve" text-anchor="start" x="37.75" y="-1273.75" font-family="Linux libertine" font-size="10.00">depth:2</text>
<polygon fill="none" stroke="black" points="75.75,-1284.25 75.75,-1307 119.5,-1307 119.5,-1284.25 75.75,-1284.25"/>
<text xml:space="preserve" text-anchor="start" x="85.25" y="-1291.5" font-family="Linux libertine" font-size="10.00">input:</text>
<polygon fill="none" stroke="black" points="119.5,-1284.25 119.5,-1307 205.25,-1307 205.25,-1284.25 119.5,-1284.25"/>
<text xml:space="preserve" text-anchor="start" x="127.12" y="-1291.5" font-family="Linux libertine" font-size="10.00">(1, 3, 224, 224) </text>
<polygon fill="none" stroke="black" points="75.75,-1261.5 75.75,-1284.25 119.5,-1284.25 119.5,-1261.5 75.75,-1261.5"/>
<text xml:space="preserve" text-anchor="start" x="80.75" y="-1268.75" font-family="Linux libertine" font-size="10.00">output: </text>
<polygon fill="none" stroke="black" points="119.5,-1261.5 119.5,-1284.25 205.25,-1284.25 205.25,-1261.5 119.5,-1261.5"/>
<text xml:space="preserve" text-anchor="start" x="124.5" y="-1268.75" font-family="Linux libertine" font-size="10.00">(1, 64, 112, 112) </text>
</g>
<!-- 0&#45;&gt;1 -->
<g id="edge1" class="edge">
<title>0&#45;&gt;1</title>
<path fill="none" stroke="black" d="M119,-1345.35C119,-1337.41 119,-1327.63 119,-1318.28"/>
<polygon fill="black" stroke="black" points="122.5,-1318.35 119,-1308.35 115.5,-1318.35 122.5,-1318.35"/>
</g>
<!-- 2 -->
<g id="node3" class="node">
<title>2</title>
<polygon fill="#c1ffc1" stroke="none" points="218,-1225.5 20,-1225.5 20,-1180 218,-1180 218,-1225.5"/>
<polygon fill="none" stroke="black" points="20,-1180 20,-1225.5 88.5,-1225.5 88.5,-1180 20,-1180"/>
<text xml:space="preserve" text-anchor="start" x="25" y="-1205" font-family="Linux libertine" font-size="10.00">BatchNorm2d</text>
<text xml:space="preserve" text-anchor="start" x="37.75" y="-1192.25" font-family="Linux libertine" font-size="10.00">depth:2</text>
<polygon fill="none" stroke="black" points="88.5,-1202.75 88.5,-1225.5 132.25,-1225.5 132.25,-1202.75 88.5,-1202.75"/>
<text xml:space="preserve" text-anchor="start" x="98" y="-1210" font-family="Linux libertine" font-size="10.00">input:</text>
<polygon fill="none" stroke="black" points="132.25,-1202.75 132.25,-1225.5 218,-1225.5 218,-1202.75 132.25,-1202.75"/>
<text xml:space="preserve" text-anchor="start" x="137.25" y="-1210" font-family="Linux libertine" font-size="10.00">(1, 64, 112, 112) </text>
<polygon fill="none" stroke="black" points="88.5,-1180 88.5,-1202.75 132.25,-1202.75 132.25,-1180 88.5,-1180"/>
<text xml:space="preserve" text-anchor="start" x="93.5" y="-1187.25" font-family="Linux libertine" font-size="10.00">output: </text>
<polygon fill="none" stroke="black" points="132.25,-1180 132.25,-1202.75 218,-1202.75 218,-1180 132.25,-1180"/>
<text xml:space="preserve" text-anchor="start" x="137.25" y="-1187.25" font-family="Linux libertine" font-size="10.00">(1, 64, 112, 112) </text>
</g>
<!-- 1&#45;&gt;2 -->
<g id="edge2" class="edge">
<title>1&#45;&gt;2</title>
<path fill="none" stroke="black" d="M119,-1261.53C119,-1253.9 119,-1245.15 119,-1236.81"/>
<polygon fill="black" stroke="black" points="122.5,-1236.96 119,-1226.96 115.5,-1236.96 122.5,-1236.96"/>
</g>
<!-- 3 -->
<g id="node4" class="node">
<title>3</title>
<polygon fill="#c1ffc1" stroke="none" points="205.25,-1144 32.75,-1144 32.75,-1098.5 205.25,-1098.5 205.25,-1144"/>
<polygon fill="none" stroke="black" points="32.75,-1098.5 32.75,-1144 75.75,-1144 75.75,-1098.5 32.75,-1098.5"/>
<text xml:space="preserve" text-anchor="start" x="42.62" y="-1123.5" font-family="Linux libertine" font-size="10.00">ReLU</text>
<text xml:space="preserve" text-anchor="start" x="37.75" y="-1110.75" font-family="Linux libertine" font-size="10.00">depth:2</text>
<polygon fill="none" stroke="black" points="75.75,-1121.25 75.75,-1144 119.5,-1144 119.5,-1121.25 75.75,-1121.25"/>
<text xml:space="preserve" text-anchor="start" x="85.25" y="-1128.5" font-family="Linux libertine" font-size="10.00">input:</text>
<polygon fill="none" stroke="black" points="119.5,-1121.25 119.5,-1144 205.25,-1144 205.25,-1121.25 119.5,-1121.25"/>
<text xml:space="preserve" text-anchor="start" x="124.5" y="-1128.5" font-family="Linux libertine" font-size="10.00">(1, 64, 112, 112) </text>
<polygon fill="none" stroke="black" points="75.75,-1098.5 75.75,-1121.25 119.5,-1121.25 119.5,-1098.5 75.75,-1098.5"/>
<text xml:space="preserve" text-anchor="start" x="80.75" y="-1105.75" font-family="Linux libertine" font-size="10.00">output: </text>
<polygon fill="none" stroke="black" points="119.5,-1098.5 119.5,-1121.25 205.25,-1121.25 205.25,-1098.5 119.5,-1098.5"/>
<text xml:space="preserve" text-anchor="start" x="124.5" y="-1105.75" font-family="Linux libertine" font-size="10.00">(1, 64, 112, 112) </text>
</g>
<!-- 2&#45;&gt;3 -->
<g id="edge3" class="edge">
<title>2&#45;&gt;3</title>
<path fill="none" stroke="black" d="M119,-1180.03C119,-1172.4 119,-1163.65 119,-1155.31"/>
<polygon fill="black" stroke="black" points="122.5,-1155.46 119,-1145.46 115.5,-1155.46 122.5,-1155.46"/>
</g>
<!-- 4 -->
<g id="node5" class="node">
<title>4</title>
<polygon fill="#c1ffc1" stroke="none" points="212,-1062.5 26,-1062.5 26,-1017 212,-1017 212,-1062.5"/>
<polygon fill="none" stroke="black" points="26,-1017 26,-1062.5 82.5,-1062.5 82.5,-1017 26,-1017"/>
<text xml:space="preserve" text-anchor="start" x="31" y="-1042" font-family="Linux libertine" font-size="10.00">MaxPool2d</text>
<text xml:space="preserve" text-anchor="start" x="37.75" y="-1029.25" font-family="Linux libertine" font-size="10.00">depth:2</text>
<polygon fill="none" stroke="black" points="82.5,-1039.75 82.5,-1062.5 126.25,-1062.5 126.25,-1039.75 82.5,-1039.75"/>
<text xml:space="preserve" text-anchor="start" x="92" y="-1047" font-family="Linux libertine" font-size="10.00">input:</text>
<polygon fill="none" stroke="black" points="126.25,-1039.75 126.25,-1062.5 212,-1062.5 212,-1039.75 126.25,-1039.75"/>
<text xml:space="preserve" text-anchor="start" x="131.25" y="-1047" font-family="Linux libertine" font-size="10.00">(1, 64, 112, 112) </text>
<polygon fill="none" stroke="black" points="82.5,-1017 82.5,-1039.75 126.25,-1039.75 126.25,-1017 82.5,-1017"/>
<text xml:space="preserve" text-anchor="start" x="87.5" y="-1024.25" font-family="Linux libertine" font-size="10.00">output: </text>
<polygon fill="none" stroke="black" points="126.25,-1017 126.25,-1039.75 212,-1039.75 212,-1017 126.25,-1017"/>
<text xml:space="preserve" text-anchor="start" x="136.5" y="-1024.25" font-family="Linux libertine" font-size="10.00">(1, 64, 56, 56) </text>
</g>
<!-- 3&#45;&gt;4 -->
<g id="edge4" class="edge">
<title>3&#45;&gt;4</title>
<path fill="none" stroke="black" d="M119,-1098.53C119,-1090.9 119,-1082.15 119,-1073.81"/>
<polygon fill="black" stroke="black" points="122.5,-1073.96 119,-1063.96 115.5,-1073.96 122.5,-1073.96"/>
</g>
<!-- 5 -->
<g id="node6" class="node">
<title>5</title>
<polygon fill="#c1ffc1" stroke="none" points="206.38,-978.75 31.62,-978.75 31.62,-933.25 206.38,-933.25 206.38,-978.75"/>
<polygon fill="none" stroke="black" points="31.62,-933.25 31.62,-978.75 87.38,-978.75 87.38,-933.25 31.62,-933.25"/>
<text xml:space="preserve" text-anchor="start" x="36.62" y="-958.25" font-family="Linux libertine" font-size="10.00">BasicBlock</text>
<text xml:space="preserve" text-anchor="start" x="43" y="-945.5" font-family="Linux libertine" font-size="10.00">depth:3</text>
<polygon fill="none" stroke="black" points="87.38,-956 87.38,-978.75 131.12,-978.75 131.12,-956 87.38,-956"/>
<text xml:space="preserve" text-anchor="start" x="96.88" y="-963.25" font-family="Linux libertine" font-size="10.00">input:</text>
<polygon fill="none" stroke="black" points="131.12,-956 131.12,-978.75 206.38,-978.75 206.38,-956 131.12,-956"/>
<text xml:space="preserve" text-anchor="start" x="136.12" y="-963.25" font-family="Linux libertine" font-size="10.00">(1, 64, 56, 56) </text>
<polygon fill="none" stroke="black" points="87.38,-933.25 87.38,-956 131.12,-956 131.12,-933.25 87.38,-933.25"/>
<text xml:space="preserve" text-anchor="start" x="92.38" y="-940.5" font-family="Linux libertine" font-size="10.00">output: </text>
<polygon fill="none" stroke="black" points="131.12,-933.25 131.12,-956 206.38,-956 206.38,-933.25 131.12,-933.25"/>
<text xml:space="preserve" text-anchor="start" x="136.12" y="-940.5" font-family="Linux libertine" font-size="10.00">(1, 64, 56, 56) </text>
</g>
<!-- 4&#45;&gt;5 -->
<g id="edge5" class="edge">
<title>4&#45;&gt;5</title>
<path fill="none" stroke="black" d="M119,-1017.27C119,-1008.89 119,-999.09 119,-989.86"/>
<polygon fill="black" stroke="black" points="122.5,-990.13 119,-980.13 115.5,-990.13 122.5,-990.13"/>
</g>
<!-- 6 -->
<g id="node7" class="node">
<title>6</title>
<polygon fill="#c1ffc1" stroke="none" points="206.38,-897.25 31.62,-897.25 31.62,-851.75 206.38,-851.75 206.38,-897.25"/>
<polygon fill="none" stroke="black" points="31.62,-851.75 31.62,-897.25 87.38,-897.25 87.38,-851.75 31.62,-851.75"/>
<text xml:space="preserve" text-anchor="start" x="36.62" y="-876.75" font-family="Linux libertine" font-size="10.00">BasicBlock</text>
<text xml:space="preserve" text-anchor="start" x="43" y="-864" font-family="Linux libertine" font-size="10.00">depth:3</text>
<polygon fill="none" stroke="black" points="87.38,-874.5 87.38,-897.25 131.12,-897.25 131.12,-874.5 87.38,-874.5"/>
<text xml:space="preserve" text-anchor="start" x="96.88" y="-881.75" font-family="Linux libertine" font-size="10.00">input:</text>
<polygon fill="none" stroke="black" points="131.12,-874.5 131.12,-897.25 206.38,-897.25 206.38,-874.5 131.12,-874.5"/>
<text xml:space="preserve" text-anchor="start" x="136.12" y="-881.75" font-family="Linux libertine" font-size="10.00">(1, 64, 56, 56) </text>
<polygon fill="none" stroke="black" points="87.38,-851.75 87.38,-874.5 131.12,-874.5 131.12,-851.75 87.38,-851.75"/>
<text xml:space="preserve" text-anchor="start" x="92.38" y="-859" font-family="Linux libertine" font-size="10.00">output: </text>
<polygon fill="none" stroke="black" points="131.12,-851.75 131.12,-874.5 206.38,-874.5 206.38,-851.75 131.12,-851.75"/>
<text xml:space="preserve" text-anchor="start" x="136.12" y="-859" font-family="Linux libertine" font-size="10.00">(1, 64, 56, 56) </text>
</g>
<!-- 5&#45;&gt;6 -->
<g id="edge6" class="edge">
<title>5&#45;&gt;6</title>
<path fill="none" stroke="black" d="M119,-933.28C119,-925.65 119,-916.9 119,-908.56"/>
<polygon fill="black" stroke="black" points="122.5,-908.71 119,-898.71 115.5,-908.71 122.5,-908.71"/>
</g>
<!-- 7 -->
<g id="node8" class="node">
<title>7</title>
<polygon fill="#c1ffc1" stroke="none" points="209,-805.5 29,-805.5 29,-760 209,-760 209,-805.5"/>
<polygon fill="none" stroke="black" points="29,-760 29,-805.5 84.75,-805.5 84.75,-760 29,-760"/>
<text xml:space="preserve" text-anchor="start" x="34" y="-785" font-family="Linux libertine" font-size="10.00">BasicBlock</text>
<text xml:space="preserve" text-anchor="start" x="40.38" y="-772.25" font-family="Linux libertine" font-size="10.00">depth:3</text>
<polygon fill="none" stroke="black" points="84.75,-782.75 84.75,-805.5 128.5,-805.5 128.5,-782.75 84.75,-782.75"/>
<text xml:space="preserve" text-anchor="start" x="94.25" y="-790" font-family="Linux libertine" font-size="10.00">input:</text>
<polygon fill="none" stroke="black" points="128.5,-782.75 128.5,-805.5 209,-805.5 209,-782.75 128.5,-782.75"/>
<text xml:space="preserve" text-anchor="start" x="136.12" y="-790" font-family="Linux libertine" font-size="10.00">(1, 64, 56, 56) </text>
<polygon fill="none" stroke="black" points="84.75,-760 84.75,-782.75 128.5,-782.75 128.5,-760 84.75,-760"/>
<text xml:space="preserve" text-anchor="start" x="89.75" y="-767.25" font-family="Linux libertine" font-size="10.00">output: </text>
<polygon fill="none" stroke="black" points="128.5,-760 128.5,-782.75 209,-782.75 209,-760 128.5,-760"/>
<text xml:space="preserve" text-anchor="start" x="133.5" y="-767.25" font-family="Linux libertine" font-size="10.00">(1, 128, 28, 28) </text>
</g>
<!-- 6&#45;&gt;7 -->
<g id="edge7" class="edge">
<title>6&#45;&gt;7</title>
<path fill="none" stroke="black" d="M119,-851.77C119,-841.19 119,-828.24 119,-816.49"/>
<polygon fill="black" stroke="black" points="122.5,-816.79 119,-806.79 115.5,-816.79 122.5,-816.79"/>
</g>
<!-- 8 -->
<g id="node9" class="node">
<title>8</title>
<polygon fill="#c1ffc1" stroke="none" points="209,-724 29,-724 29,-678.5 209,-678.5 209,-724"/>
<polygon fill="none" stroke="black" points="29,-678.5 29,-724 84.75,-724 84.75,-678.5 29,-678.5"/>
<text xml:space="preserve" text-anchor="start" x="34" y="-703.5" font-family="Linux libertine" font-size="10.00">BasicBlock</text>
<text xml:space="preserve" text-anchor="start" x="40.38" y="-690.75" font-family="Linux libertine" font-size="10.00">depth:3</text>
<polygon fill="none" stroke="black" points="84.75,-701.25 84.75,-724 128.5,-724 128.5,-701.25 84.75,-701.25"/>
<text xml:space="preserve" text-anchor="start" x="94.25" y="-708.5" font-family="Linux libertine" font-size="10.00">input:</text>
<polygon fill="none" stroke="black" points="128.5,-701.25 128.5,-724 209,-724 209,-701.25 128.5,-701.25"/>
<text xml:space="preserve" text-anchor="start" x="133.5" y="-708.5" font-family="Linux libertine" font-size="10.00">(1, 128, 28, 28) </text>
<polygon fill="none" stroke="black" points="84.75,-678.5 84.75,-701.25 128.5,-701.25 128.5,-678.5 84.75,-678.5"/>
<text xml:space="preserve" text-anchor="start" x="89.75" y="-685.75" font-family="Linux libertine" font-size="10.00">output: </text>
<polygon fill="none" stroke="black" points="128.5,-678.5 128.5,-701.25 209,-701.25 209,-678.5 128.5,-678.5"/>
<text xml:space="preserve" text-anchor="start" x="133.5" y="-685.75" font-family="Linux libertine" font-size="10.00">(1, 128, 28, 28) </text>
</g>
<!-- 7&#45;&gt;8 -->
<g id="edge8" class="edge">
<title>7&#45;&gt;8</title>
<path fill="none" stroke="black" d="M119,-760.03C119,-752.4 119,-743.65 119,-735.31"/>
<polygon fill="black" stroke="black" points="122.5,-735.46 119,-725.46 115.5,-735.46 122.5,-735.46"/>
</g>
<!-- 9 -->
<g id="node10" class="node">
<title>9</title>
<polygon fill="#c1ffc1" stroke="none" points="209,-632.25 29,-632.25 29,-586.75 209,-586.75 209,-632.25"/>
<polygon fill="none" stroke="black" points="29,-586.75 29,-632.25 84.75,-632.25 84.75,-586.75 29,-586.75"/>
<text xml:space="preserve" text-anchor="start" x="34" y="-611.75" font-family="Linux libertine" font-size="10.00">BasicBlock</text>
<text xml:space="preserve" text-anchor="start" x="40.38" y="-599" font-family="Linux libertine" font-size="10.00">depth:3</text>
<polygon fill="none" stroke="black" points="84.75,-609.5 84.75,-632.25 128.5,-632.25 128.5,-609.5 84.75,-609.5"/>
<text xml:space="preserve" text-anchor="start" x="94.25" y="-616.75" font-family="Linux libertine" font-size="10.00">input:</text>
<polygon fill="none" stroke="black" points="128.5,-609.5 128.5,-632.25 209,-632.25 209,-609.5 128.5,-609.5"/>
<text xml:space="preserve" text-anchor="start" x="133.5" y="-616.75" font-family="Linux libertine" font-size="10.00">(1, 128, 28, 28) </text>
<polygon fill="none" stroke="black" points="84.75,-586.75 84.75,-609.5 128.5,-609.5 128.5,-586.75 84.75,-586.75"/>
<text xml:space="preserve" text-anchor="start" x="89.75" y="-594" font-family="Linux libertine" font-size="10.00">output: </text>
<polygon fill="none" stroke="black" points="128.5,-586.75 128.5,-609.5 209,-609.5 209,-586.75 128.5,-586.75"/>
<text xml:space="preserve" text-anchor="start" x="133.5" y="-594" font-family="Linux libertine" font-size="10.00">(1, 256, 14, 14) </text>
</g>
<!-- 8&#45;&gt;9 -->
<g id="edge9" class="edge">
<title>8&#45;&gt;9</title>
<path fill="none" stroke="black" d="M119,-678.52C119,-667.94 119,-654.99 119,-643.24"/>
<polygon fill="black" stroke="black" points="122.5,-643.54 119,-633.54 115.5,-643.54 122.5,-643.54"/>
</g>
<!-- 10 -->
<g id="node11" class="node">
<title>10</title>
<polygon fill="#c1ffc1" stroke="none" points="209,-550.75 29,-550.75 29,-505.25 209,-505.25 209,-550.75"/>
<polygon fill="none" stroke="black" points="29,-505.25 29,-550.75 84.75,-550.75 84.75,-505.25 29,-505.25"/>
<text xml:space="preserve" text-anchor="start" x="34" y="-530.25" font-family="Linux libertine" font-size="10.00">BasicBlock</text>
<text xml:space="preserve" text-anchor="start" x="40.38" y="-517.5" font-family="Linux libertine" font-size="10.00">depth:3</text>
<polygon fill="none" stroke="black" points="84.75,-528 84.75,-550.75 128.5,-550.75 128.5,-528 84.75,-528"/>
<text xml:space="preserve" text-anchor="start" x="94.25" y="-535.25" font-family="Linux libertine" font-size="10.00">input:</text>
<polygon fill="none" stroke="black" points="128.5,-528 128.5,-550.75 209,-550.75 209,-528 128.5,-528"/>
<text xml:space="preserve" text-anchor="start" x="133.5" y="-535.25" font-family="Linux libertine" font-size="10.00">(1, 256, 14, 14) </text>
<polygon fill="none" stroke="black" points="84.75,-505.25 84.75,-528 128.5,-528 128.5,-505.25 84.75,-505.25"/>
<text xml:space="preserve" text-anchor="start" x="89.75" y="-512.5" font-family="Linux libertine" font-size="10.00">output: </text>
<polygon fill="none" stroke="black" points="128.5,-505.25 128.5,-528 209,-528 209,-505.25 128.5,-505.25"/>
<text xml:space="preserve" text-anchor="start" x="133.5" y="-512.5" font-family="Linux libertine" font-size="10.00">(1, 256, 14, 14) </text>
</g>
<!-- 9&#45;&gt;10 -->
<g id="edge10" class="edge">
<title>9&#45;&gt;10</title>
<path fill="none" stroke="black" d="M119,-586.78C119,-579.15 119,-570.4 119,-562.06"/>
<polygon fill="black" stroke="black" points="122.5,-562.21 119,-552.21 115.5,-562.21 122.5,-562.21"/>
</g>
<!-- 11 -->
<g id="node12" class="node">
<title>11</title>
<polygon fill="#c1ffc1" stroke="none" points="209,-459 29,-459 29,-413.5 209,-413.5 209,-459"/>
<polygon fill="none" stroke="black" points="29,-413.5 29,-459 84.75,-459 84.75,-413.5 29,-413.5"/>
<text xml:space="preserve" text-anchor="start" x="34" y="-438.5" font-family="Linux libertine" font-size="10.00">BasicBlock</text>
<text xml:space="preserve" text-anchor="start" x="40.38" y="-425.75" font-family="Linux libertine" font-size="10.00">depth:3</text>
<polygon fill="none" stroke="black" points="84.75,-436.25 84.75,-459 128.5,-459 128.5,-436.25 84.75,-436.25"/>
<text xml:space="preserve" text-anchor="start" x="94.25" y="-443.5" font-family="Linux libertine" font-size="10.00">input:</text>
<polygon fill="none" stroke="black" points="128.5,-436.25 128.5,-459 209,-459 209,-436.25 128.5,-436.25"/>
<text xml:space="preserve" text-anchor="start" x="133.5" y="-443.5" font-family="Linux libertine" font-size="10.00">(1, 256, 14, 14) </text>
<polygon fill="none" stroke="black" points="84.75,-413.5 84.75,-436.25 128.5,-436.25 128.5,-413.5 84.75,-413.5"/>
<text xml:space="preserve" text-anchor="start" x="89.75" y="-420.75" font-family="Linux libertine" font-size="10.00">output: </text>
<polygon fill="none" stroke="black" points="128.5,-413.5 128.5,-436.25 209,-436.25 209,-413.5 128.5,-413.5"/>
<text xml:space="preserve" text-anchor="start" x="138.75" y="-420.75" font-family="Linux libertine" font-size="10.00">(1, 512, 7, 7) </text>
</g>
<!-- 10&#45;&gt;11 -->
<g id="edge11" class="edge">
<title>10&#45;&gt;11</title>
<path fill="none" stroke="black" d="M119,-505.27C119,-494.69 119,-481.74 119,-469.99"/>
<polygon fill="black" stroke="black" points="122.5,-470.29 119,-460.29 115.5,-470.29 122.5,-470.29"/>
</g>
<!-- 12 -->
<g id="node13" class="node">
<title>12</title>
<polygon fill="#c1ffc1" stroke="none" points="203.75,-377.5 34.25,-377.5 34.25,-332 203.75,-332 203.75,-377.5"/>
<polygon fill="none" stroke="black" points="34.25,-332 34.25,-377.5 90,-377.5 90,-332 34.25,-332"/>
<text xml:space="preserve" text-anchor="start" x="39.25" y="-357" font-family="Linux libertine" font-size="10.00">BasicBlock</text>
<text xml:space="preserve" text-anchor="start" x="45.62" y="-344.25" font-family="Linux libertine" font-size="10.00">depth:3</text>
<polygon fill="none" stroke="black" points="90,-354.75 90,-377.5 133.75,-377.5 133.75,-354.75 90,-354.75"/>
<text xml:space="preserve" text-anchor="start" x="99.5" y="-362" font-family="Linux libertine" font-size="10.00">input:</text>
<polygon fill="none" stroke="black" points="133.75,-354.75 133.75,-377.5 203.75,-377.5 203.75,-354.75 133.75,-354.75"/>
<text xml:space="preserve" text-anchor="start" x="138.75" y="-362" font-family="Linux libertine" font-size="10.00">(1, 512, 7, 7) </text>
<polygon fill="none" stroke="black" points="90,-332 90,-354.75 133.75,-354.75 133.75,-332 90,-332"/>
<text xml:space="preserve" text-anchor="start" x="95" y="-339.25" font-family="Linux libertine" font-size="10.00">output: </text>
<polygon fill="none" stroke="black" points="133.75,-332 133.75,-354.75 203.75,-354.75 203.75,-332 133.75,-332"/>
<text xml:space="preserve" text-anchor="start" x="138.75" y="-339.25" font-family="Linux libertine" font-size="10.00">(1, 512, 7, 7) </text>
</g>
<!-- 11&#45;&gt;12 -->
<g id="edge12" class="edge">
<title>11&#45;&gt;12</title>
<path fill="none" stroke="black" d="M119,-413.53C119,-405.9 119,-397.15 119,-388.81"/>
<polygon fill="black" stroke="black" points="122.5,-388.96 119,-378.96 115.5,-388.96 122.5,-388.96"/>
</g>
<!-- 13 -->
<g id="node14" class="node">
<title>13</title>
<polygon fill="#c1ffc1" stroke="none" points="222.12,-296 15.88,-296 15.88,-250.5 222.12,-250.5 222.12,-296"/>
<polygon fill="none" stroke="black" points="15.88,-250.5 15.88,-296 108.38,-296 108.38,-250.5 15.88,-250.5"/>
<text xml:space="preserve" text-anchor="start" x="20.88" y="-275.5" font-family="Linux libertine" font-size="10.00">AdaptiveAvgPool2d</text>
<text xml:space="preserve" text-anchor="start" x="45.62" y="-262.75" font-family="Linux libertine" font-size="10.00">depth:2</text>
<polygon fill="none" stroke="black" points="108.38,-273.25 108.38,-296 152.12,-296 152.12,-273.25 108.38,-273.25"/>
<text xml:space="preserve" text-anchor="start" x="117.88" y="-280.5" font-family="Linux libertine" font-size="10.00">input:</text>
<polygon fill="none" stroke="black" points="152.12,-273.25 152.12,-296 222.12,-296 222.12,-273.25 152.12,-273.25"/>
<text xml:space="preserve" text-anchor="start" x="157.12" y="-280.5" font-family="Linux libertine" font-size="10.00">(1, 512, 7, 7) </text>
<polygon fill="none" stroke="black" points="108.38,-250.5 108.38,-273.25 152.12,-273.25 152.12,-250.5 108.38,-250.5"/>
<text xml:space="preserve" text-anchor="start" x="113.38" y="-257.75" font-family="Linux libertine" font-size="10.00">output: </text>
<polygon fill="none" stroke="black" points="152.12,-250.5 152.12,-273.25 222.12,-273.25 222.12,-250.5 152.12,-250.5"/>
<text xml:space="preserve" text-anchor="start" x="157.12" y="-257.75" font-family="Linux libertine" font-size="10.00">(1, 512, 1, 1) </text>
</g>
<!-- 12&#45;&gt;13 -->
<g id="edge13" class="edge">
<title>12&#45;&gt;13</title>
<path fill="none" stroke="black" d="M119,-332.03C119,-324.4 119,-315.65 119,-307.31"/>
<polygon fill="black" stroke="black" points="122.5,-307.46 119,-297.46 115.5,-307.46 122.5,-307.46"/>
</g>
<!-- 14 -->
<g id="node15" class="node">
<title>14</title>
<polygon fill="aliceblue" stroke="none" points="197.38,-214.5 40.62,-214.5 40.62,-169 197.38,-169 197.38,-214.5"/>
<polygon fill="none" stroke="black" points="40.62,-169 40.62,-214.5 83.62,-214.5 83.62,-169 40.62,-169"/>
<text xml:space="preserve" text-anchor="start" x="48.62" y="-194" font-family="Linux libertine" font-size="10.00">flatten</text>
<text xml:space="preserve" text-anchor="start" x="45.62" y="-181.25" font-family="Linux libertine" font-size="10.00">depth:2</text>
<polygon fill="none" stroke="black" points="83.62,-191.75 83.62,-214.5 127.38,-214.5 127.38,-191.75 83.62,-191.75"/>
<text xml:space="preserve" text-anchor="start" x="93.12" y="-199" font-family="Linux libertine" font-size="10.00">input:</text>
<polygon fill="none" stroke="black" points="127.38,-191.75 127.38,-214.5 197.38,-214.5 197.38,-191.75 127.38,-191.75"/>
<text xml:space="preserve" text-anchor="start" x="132.38" y="-199" font-family="Linux libertine" font-size="10.00">(1, 512, 1, 1) </text>
<polygon fill="none" stroke="black" points="83.62,-169 83.62,-191.75 127.38,-191.75 127.38,-169 83.62,-169"/>
<text xml:space="preserve" text-anchor="start" x="88.62" y="-176.25" font-family="Linux libertine" font-size="10.00">output: </text>
<polygon fill="none" stroke="black" points="127.38,-169 127.38,-191.75 197.38,-191.75 197.38,-169 127.38,-169"/>
<text xml:space="preserve" text-anchor="start" x="143.62" y="-176.25" font-family="Linux libertine" font-size="10.00">(1, 512) </text>
</g>
<!-- 13&#45;&gt;14 -->
<g id="edge14" class="edge">
<title>13&#45;&gt;14</title>
<path fill="none" stroke="black" d="M119,-250.53C119,-242.9 119,-234.15 119,-225.81"/>
<polygon fill="black" stroke="black" points="122.5,-225.96 119,-215.96 115.5,-225.96 122.5,-225.96"/>
</g>
<!-- 15 -->
<g id="node16" class="node">
<title>15</title>
<polygon fill="#c1ffc1" stroke="none" points="186.12,-133 51.88,-133 51.88,-87.5 186.12,-87.5 186.12,-133"/>
<polygon fill="none" stroke="black" points="51.88,-87.5 51.88,-133 94.88,-133 94.88,-87.5 51.88,-87.5"/>
<text xml:space="preserve" text-anchor="start" x="59.88" y="-112.5" font-family="Linux libertine" font-size="10.00">Linear</text>
<text xml:space="preserve" text-anchor="start" x="56.88" y="-99.75" font-family="Linux libertine" font-size="10.00">depth:2</text>
<polygon fill="none" stroke="black" points="94.88,-110.25 94.88,-133 138.62,-133 138.62,-110.25 94.88,-110.25"/>
<text xml:space="preserve" text-anchor="start" x="104.38" y="-117.5" font-family="Linux libertine" font-size="10.00">input:</text>
<polygon fill="none" stroke="black" points="138.62,-110.25 138.62,-133 186.12,-133 186.12,-110.25 138.62,-110.25"/>
<text xml:space="preserve" text-anchor="start" x="143.62" y="-117.5" font-family="Linux libertine" font-size="10.00">(1, 512) </text>
<polygon fill="none" stroke="black" points="94.88,-87.5 94.88,-110.25 138.62,-110.25 138.62,-87.5 94.88,-87.5"/>
<text xml:space="preserve" text-anchor="start" x="99.88" y="-94.75" font-family="Linux libertine" font-size="10.00">output: </text>
<polygon fill="none" stroke="black" points="138.62,-87.5 138.62,-110.25 186.12,-110.25 186.12,-87.5 138.62,-87.5"/>
<text xml:space="preserve" text-anchor="start" x="148.88" y="-94.75" font-family="Linux libertine" font-size="10.00">(1, 4) </text>
</g>
<!-- 14&#45;&gt;15 -->
<g id="edge15" class="edge">
<title>14&#45;&gt;15</title>
<path fill="none" stroke="black" d="M119,-169.03C119,-161.4 119,-152.65 119,-144.31"/>
<polygon fill="black" stroke="black" points="122.5,-144.46 119,-134.46 115.5,-144.46 122.5,-144.46"/>
</g>
<!-- 16 -->
<g id="node17" class="node">
<title>16</title>
<polygon fill="lightyellow" stroke="none" points="169.88,-51.5 68.12,-51.5 68.12,-16 169.88,-16 169.88,-51.5"/>
<polygon fill="none" stroke="black" points="68.12,-16 68.12,-51.5 135.88,-51.5 135.88,-16 68.12,-16"/>
<text xml:space="preserve" text-anchor="start" x="73.12" y="-36" font-family="Linux libertine" font-size="10.00">output&#45;tensor</text>
<text xml:space="preserve" text-anchor="start" x="85.5" y="-23.25" font-family="Linux libertine" font-size="10.00">depth:0</text>
<polygon fill="none" stroke="black" points="135.88,-16 135.88,-51.5 169.88,-51.5 169.88,-16 135.88,-16"/>
<text xml:space="preserve" text-anchor="start" x="140.88" y="-29.62" font-family="Linux libertine" font-size="10.00">(1, 4)</text>
</g>
<!-- 15&#45;&gt;16 -->
<g id="edge16" class="edge">
<title>15&#45;&gt;16</title>
<path fill="none" stroke="black" d="M119,-87.7C119,-79.85 119,-70.85 119,-62.54"/>
<polygon fill="black" stroke="black" points="122.5,-62.56 119,-52.56 115.5,-62.56 122.5,-62.56"/>
</g>
</g>
</svg>
