<?xml version="1.0" encoding="UTF-8" standalone="no"?>
<!DOCTYPE svg PUBLIC "-//W3C//DTD SVG 1.1//EN"
 "http://www.w3.org/Graphics/SVG/1.1/DTD/svg11.dtd">
<!-- Generated by graphviz version 14.1.5 (20260411.2331)
 -->
<!-- Title: model Pages: 1 -->
<svg width="142pt" height="1102pt"
 viewBox="0.00 0.00 142.00 1102.00" xmlns="http://www.w3.org/2000/svg" xmlns:xlink="http://www.w3.org/1999/xlink">
<g id="graph0" class="graph" transform="scale(0.596643 0.596643) rotate(0) translate(4 1843)">
<title>model</title>
<polygon fill="white" stroke="none" points="-4,4 -4,-1843 234,-1843 234,4 -4,4"/>
<g id="clust1" class="cluster">
<title>cluster_2</title>
<polygon fill="none" stroke="black" stroke-dasharray="5,2" points="8,-815.25 8,-1795.5 222,-1795.5 222,-815.25 8,-815.25"/>
<text xml:space="preserve" text-anchor="middle" x="40.75" y="-1780.1" font-family="Times New Roman,serif" font-size="12.00">Sequential</text>
</g>
<g id="clust2" class="cluster">
<title>cluster_3</title>
<polygon fill="none" stroke="black" stroke-dasharray="5,2" points="29,-8 29,-733.75 201,-733.75 201,-8 29,-8"/>
<text xml:space="preserve" text-anchor="middle" x="61.75" y="-718.35" font-family="Times New Roman,serif" font-size="12.00">Sequential</text>
</g>
<!-- 0 -->
<g id="node1" class="node">
<title>0</title>
<polygon fill="lightyellow" stroke="none" points="184.62,-1839 45.38,-1839 45.38,-1803.5 184.62,-1803.5 184.62,-1839"/>
<polygon fill="none" stroke="black" points="45.38,-1803.5 45.38,-1839 107.12,-1839 107.12,-1803.5 45.38,-1803.5"/>
<text xml:space="preserve" text-anchor="start" x="50.38" y="-1823.5" font-family="Linux libertine" font-size="10.00">input&#45;tensor</text>
<text xml:space="preserve" text-anchor="start" x="59.75" y="-1810.75" font-family="Linux libertine" font-size="10.00">depth:0</text>
<polygon fill="none" stroke="black" points="107.12,-1803.5 107.12,-1839 184.62,-1839 184.62,-1803.5 107.12,-1803.5"/>
<text xml:space="preserve" text-anchor="start" x="112.12" y="-1817.12" font-family="Linux libertine" font-size="10.00">(1, 3, 224, 224)</text>
</g>
<!-- 1 -->
<g id="node2" class="node">
<title>1</title>
<polygon fill="#c1ffc1" stroke="none" points="201.25,-1765.25 28.75,-1765.25 28.75,-1719.75 201.25,-1719.75 201.25,-1765.25"/>
<polygon fill="none" stroke="black" points="28.75,-1719.75 28.75,-1765.25 71.75,-1765.25 71.75,-1719.75 28.75,-1719.75"/>
<text xml:space="preserve" text-anchor="start" x="34.12" y="-1744.75" font-family="Linux libertine" font-size="10.00">Conv2d</text>
<text xml:space="preserve" text-anchor="start" x="33.75" y="-1732" font-family="Linux libertine" font-size="10.00">depth:2</text>
<polygon fill="none" stroke="black" points="71.75,-1742.5 71.75,-1765.25 115.5,-1765.25 115.5,-1742.5 71.75,-1742.5"/>
<text xml:space="preserve" text-anchor="start" x="81.25" y="-1749.75" font-family="Linux libertine" font-size="10.00">input:</text>
<polygon fill="none" stroke="black" points="115.5,-1742.5 115.5,-1765.25 201.25,-1765.25 201.25,-1742.5 115.5,-1742.5"/>
<text xml:space="preserve" text-anchor="start" x="123.12" y="-1749.75" font-family="Linux libertine" font-size="10.00">(1, 3, 224, 224) </text>
<polygon fill="none" stroke="black" points="71.75,-1719.75 71.75,-1742.5 115.5,-1742.5 115.5,-1719.75 71.75,-1719.75"/>
<text xml:space="preserve" text-anchor="start" x="76.75" y="-1727" font-family="Linux libertine" font-size="10.00">output: </text>
<polygon fill="none" stroke="black" points="115.5,-1719.75 115.5,-1742.5 201.25,-1742.5 201.25,-1719.75 115.5,-1719.75"/>
<text xml:space="preserve" text-anchor="start" x="120.5" y="-1727" font-family="Linux libertine" font-size="10.00">(1, 32, 224, 224) </text>
</g>
<!-- 0&#45;&gt;1 -->
<g id="edge1" class="edge">
<title>0&#45;&gt;1</title>
<path fill="none" stroke="black" d="M115,-1803.6C115,-1795.66 115,-1785.88 115,-1776.53"/>
<polygon fill="black" stroke="black" points="118.5,-1776.6 115,-1766.6 111.5,-1776.6 118.5,-1776.6"/>
</g>
<!-- 2 -->
<g id="node3" class="node">
<title>2</title>
<polygon fill="#c1ffc1" stroke="none" points="214,-1683.75 16,-1683.75 16,-1638.25 214,-1638.25 214,-1683.75"/>
<polygon fill="none" stroke="black" points="16,-1638.25 16,-1683.75 84.5,-1683.75 84.5,-1638.25 16,-1638.25"/>
<text xml:space="preserve" text-anchor="start" x="21" y="-1663.25" font-family="Linux libertine" font-size="10.00">BatchNorm2d</text>
<text xml:space="preserve" text-anchor="start" x="33.75" y="-1650.5" font-family="Linux libertine" font-size="10.00">depth:2</text>
<polygon fill="none" stroke="black" points="84.5,-1661 84.5,-1683.75 128.25,-1683.75 128.25,-1661 84.5,-1661"/>
<text xml:space="preserve" text-anchor="start" x="94" y="-1668.25" font-family="Linux libertine" font-size="10.00">input:</text>
<polygon fill="none" stroke="black" points="128.25,-1661 128.25,-1683.75 214,-1683.75 214,-1661 128.25,-1661"/>
<text xml:space="preserve" text-anchor="start" x="133.25" y="-1668.25" font-family="Linux libertine" font-size="10.00">(1, 32, 224, 224) </text>
<polygon fill="none" stroke="black" points="84.5,-1638.25 84.5,-1661 128.25,-1661 128.25,-1638.25 84.5,-1638.25"/>
<text xml:space="preserve" text-anchor="start" x="89.5" y="-1645.5" font-family="Linux libertine" font-size="10.00">output: </text>
<polygon fill="none" stroke="black" points="128.25,-1638.25 128.25,-1661 214,-1661 214,-1638.25 128.25,-1638.25"/>
<text xml:space="preserve" text-anchor="start" x="133.25" y="-1645.5" font-family="Linux libertine" font-size="10.00">(1, 32, 224, 224) </text>
</g>
<!-- 1&#45;&gt;2 -->
<g id="edge2" class="edge">
<title>1&#45;&gt;2</title>
<path fill="none" stroke="black" d="M115,-1719.78C115,-1712.15 115,-1703.4 115,-1695.06"/>
<polygon fill="black" stroke="black" points="118.5,-1695.21 115,-1685.21 111.5,-1695.21 118.5,-1695.21"/>
</g>
<!-- 3 -->
<g id="node4" class="node">
<title>3</title>
<polygon fill="#c1ffc1" stroke="none" points="201.25,-1602.25 28.75,-1602.25 28.75,-1556.75 201.25,-1556.75 201.25,-1602.25"/>
<polygon fill="none" stroke="black" points="28.75,-1556.75 28.75,-1602.25 71.75,-1602.25 71.75,-1556.75 28.75,-1556.75"/>
<text xml:space="preserve" text-anchor="start" x="38.62" y="-1581.75" font-family="Linux libertine" font-size="10.00">ReLU</text>
<text xml:space="preserve" text-anchor="start" x="33.75" y="-1569" font-family="Linux libertine" font-size="10.00">depth:2</text>
<polygon fill="none" stroke="black" points="71.75,-1579.5 71.75,-1602.25 115.5,-1602.25 115.5,-1579.5 71.75,-1579.5"/>
<text xml:space="preserve" text-anchor="start" x="81.25" y="-1586.75" font-family="Linux libertine" font-size="10.00">input:</text>
<polygon fill="none" stroke="black" points="115.5,-1579.5 115.5,-1602.25 201.25,-1602.25 201.25,-1579.5 115.5,-1579.5"/>
<text xml:space="preserve" text-anchor="start" x="120.5" y="-1586.75" font-family="Linux libertine" font-size="10.00">(1, 32, 224, 224) </text>
<polygon fill="none" stroke="black" points="71.75,-1556.75 71.75,-1579.5 115.5,-1579.5 115.5,-1556.75 71.75,-1556.75"/>
<text xml:space="preserve" text-anchor="start" x="76.75" y="-1564" font-family="Linux libertine" font-size="10.00">output: </text>
<polygon fill="none" stroke="black" points="115.5,-1556.75 115.5,-1579.5 201.25,-1579.5 201.25,-1556.75 115.5,-1556.75"/>
<text xml:space="preserve" text-anchor="start" x="120.5" y="-1564" font-family="Linux libertine" font-size="10.00">(1, 32, 224, 224) </text>
</g>
<!-- 2&#45;&gt;3 -->
<g id="edge3" class="edge">
<title>2&#45;&gt;3</title>
<path fill="none" stroke="black" d="M115,-1638.28C115,-1630.65 115,-1621.9 115,-1613.56"/>
<polygon fill="black" stroke="black" points="118.5,-1613.71 115,-1603.71 111.5,-1613.71 118.5,-1613.71"/>
</g>
<!-- 4 -->
<g id="node5" class="node">
<title>4</title>
<polygon fill="#c1ffc1" stroke="none" points="208,-1520.75 22,-1520.75 22,-1475.25 208,-1475.25 208,-1520.75"/>
<polygon fill="none" stroke="black" points="22,-1475.25 22,-1520.75 78.5,-1520.75 78.5,-1475.25 22,-1475.25"/>
<text xml:space="preserve" text-anchor="start" x="27" y="-1500.25" font-family="Linux libertine" font-size="10.00">MaxPool2d</text>
<text xml:space="preserve" text-anchor="start" x="33.75" y="-1487.5" font-family="Linux libertine" font-size="10.00">depth:2</text>
<polygon fill="none" stroke="black" points="78.5,-1498 78.5,-1520.75 122.25,-1520.75 122.25,-1498 78.5,-1498"/>
<text xml:space="preserve" text-anchor="start" x="88" y="-1505.25" font-family="Linux libertine" font-size="10.00">input:</text>
<polygon fill="none" stroke="black" points="122.25,-1498 122.25,-1520.75 208,-1520.75 208,-1498 122.25,-1498"/>
<text xml:space="preserve" text-anchor="start" x="127.25" y="-1505.25" font-family="Linux libertine" font-size="10.00">(1, 32, 224, 224) </text>
<polygon fill="none" stroke="black" points="78.5,-1475.25 78.5,-1498 122.25,-1498 122.25,-1475.25 78.5,-1475.25"/>
<text xml:space="preserve" text-anchor="start" x="83.5" y="-1482.5" font-family="Linux libertine" font-size="10.00">output: </text>
<polygon fill="none" stroke="black" points="122.25,-1475.25 122.25,-1498 208,-1498 208,-1475.25 122.25,-1475.25"/>
<text xml:space="preserve" text-anchor="start" x="127.25" y="-1482.5" font-family="Linux libertine" font-size="10.00">(1, 32, 112, 112) </text>
</g>
<!-- 3&#45;&gt;4 -->
<g id="edge4" class="edge">
<title>3&#45;&gt;4</title>
<path fill="none" stroke="black" d="M115,-1556.78C115,-1549.15 115,-1540.4 115,-1532.06"/>
<polygon fill="black" stroke="black" points="118.5,-1532.21 115,-1522.21 111.5,-1532.21 118.5,-1532.21"/>
</g>
<!-- 5 -->
<g id="node6" class="node">
<title>5</title>
<polygon fill="#c1ffc1" stroke="none" points="201.25,-1439.25 28.75,-1439.25 28.75,-1393.75 201.25,-1393.75 201.25,-1439.25"/>
<polygon fill="none" stroke="black" points="28.75,-1393.75 28.75,-1439.25 71.75,-1439.25 71.75,-1393.75 28.75,-1393.75"/>
<text xml:space="preserve" text-anchor="start" x="34.12" y="-1418.75" font-family="Linux libertine" font-size="10.00">Conv2d</text>
<text xml:space="preserve" text-anchor="start" x="33.75" y="-1406" font-family="Linux libertine" font-size="10.00">depth:2</text>
<polygon fill="none" stroke="black" points="71.75,-1416.5 71.75,-1439.25 115.5,-1439.25 115.5,-1416.5 71.75,-1416.5"/>
<text xml:space="preserve" text-anchor="start" x="81.25" y="-1423.75" font-family="Linux libertine" font-size="10.00">input:</text>
<polygon fill="none" stroke="black" points="115.5,-1416.5 115.5,-1439.25 201.25,-1439.25 201.25,-1416.5 115.5,-1416.5"/>
<text xml:space="preserve" text-anchor="start" x="120.5" y="-1423.75" font-family="Linux libertine" font-size="10.00">(1, 32, 112, 112) </text>
<polygon fill="none" stroke="black" points="71.75,-1393.75 71.75,-1416.5 115.5,-1416.5 115.5,-1393.75 71.75,-1393.75"/>
<text xml:space="preserve" text-anchor="start" x="76.75" y="-1401" font-family="Linux libertine" font-size="10.00">output: </text>
<polygon fill="none" stroke="black" points="115.5,-1393.75 115.5,-1416.5 201.25,-1416.5 201.25,-1393.75 115.5,-1393.75"/>
<text xml:space="preserve" text-anchor="start" x="120.5" y="-1401" font-family="Linux libertine" font-size="10.00">(1, 64, 112, 112) </text>
</g>
<!-- 4&#45;&gt;5 -->
<g id="edge5" class="edge">
<title>4&#45;&gt;5</title>
<path fill="none" stroke="black" d="M115,-1475.28C115,-1467.65 115,-1458.9 115,-1450.56"/>
<polygon fill="black" stroke="black" points="118.5,-1450.71 115,-1440.71 111.5,-1450.71 118.5,-1450.71"/>
</g>
<!-- 6 -->
<g id="node7" class="node">
<title>6</title>
<polygon fill="#c1ffc1" stroke="none" points="214,-1357.75 16,-1357.75 16,-1312.25 214,-1312.25 214,-1357.75"/>
<polygon fill="none" stroke="black" points="16,-1312.25 16,-1357.75 84.5,-1357.75 84.5,-1312.25 16,-1312.25"/>
<text xml:space="preserve" text-anchor="start" x="21" y="-1337.25" font-family="Linux libertine" font-size="10.00">BatchNorm2d</text>
<text xml:space="preserve" text-anchor="start" x="33.75" y="-1324.5" font-family="Linux libertine" font-size="10.00">depth:2</text>
<polygon fill="none" stroke="black" points="84.5,-1335 84.5,-1357.75 128.25,-1357.75 128.25,-1335 84.5,-1335"/>
<text xml:space="preserve" text-anchor="start" x="94" y="-1342.25" font-family="Linux libertine" font-size="10.00">input:</text>
<polygon fill="none" stroke="black" points="128.25,-1335 128.25,-1357.75 214,-1357.75 214,-1335 128.25,-1335"/>
<text xml:space="preserve" text-anchor="start" x="133.25" y="-1342.25" font-family="Linux libertine" font-size="10.00">(1, 64, 112, 112) </text>
<polygon fill="none" stroke="black" points="84.5,-1312.25 84.5,-1335 128.25,-1335 128.25,-1312.25 84.5,-1312.25"/>
<text xml:space="preserve" text-anchor="start" x="89.5" y="-1319.5" font-family="Linux libertine" font-size="10.00">output: </text>
<polygon fill="none" stroke="black" points="128.25,-1312.25 128.25,-1335 214,-1335 214,-1312.25 128.25,-1312.25"/>
<text xml:space="preserve" text-anchor="start" x="133.25" y="-1319.5" font-family="Linux libertine" font-size="10.00">(1, 64, 112, 112) </text>
</g>
<!-- 5&#45;&gt;6 -->
<g id="edge6" class="edge">
<title>5&#45;&gt;6</title>
<path fill="none" stroke="black" d="M115,-1393.78C115,-1386.15 115,-1377.4 115,-1369.06"/>
<polygon fill="black" stroke="black" points="118.5,-1369.21 115,-1359.21 111.5,-1369.21 118.5,-1369.21"/>
</g>
<!-- 7 -->
<g id="node8" class="node">
<title>7</title>
<polygon fill="#c1ffc1" stroke="none" points="201.25,-1276.25 28.75,-1276.25 28.75,-1230.75 201.25,-1230.75 201.25,-1276.25"/>
<polygon fill="none" stroke="black" points="28.75,-1230.75 28.75,-1276.25 71.75,-1276.25 71.75,-1230.75 28.75,-1230.75"/>
<text xml:space="preserve" text-anchor="start" x="38.62" y="-1255.75" font-family="Linux libertine" font-size="10.00">ReLU</text>
<text xml:space="preserve" text-anchor="start" x="33.75" y="-1243" font-family="Linux libertine" font-size="10.00">depth:2</text>
<polygon fill="none" stroke="black" points="71.75,-1253.5 71.75,-1276.25 115.5,-1276.25 115.5,-1253.5 71.75,-1253.5"/>
<text xml:space="preserve" text-anchor="start" x="81.25" y="-1260.75" font-family="Linux libertine" font-size="10.00">input:</text>
<polygon fill="none" stroke="black" points="115.5,-1253.5 115.5,-1276.25 201.25,-1276.25 201.25,-1253.5 115.5,-1253.5"/>
<text xml:space="preserve" text-anchor="start" x="120.5" y="-1260.75" font-family="Linux libertine" font-size="10.00">(1, 64, 112, 112) </text>
<polygon fill="none" stroke="black" points="71.75,-1230.75 71.75,-1253.5 115.5,-1253.5 115.5,-1230.75 71.75,-1230.75"/>
<text xml:space="preserve" text-anchor="start" x="76.75" y="-1238" font-family="Linux libertine" font-size="10.00">output: </text>
<polygon fill="none" stroke="black" points="115.5,-1230.75 115.5,-1253.5 201.25,-1253.5 201.25,-1230.75 115.5,-1230.75"/>
<text xml:space="preserve" text-anchor="start" x="120.5" y="-1238" font-family="Linux libertine" font-size="10.00">(1, 64, 112, 112) </text>
</g>
<!-- 6&#45;&gt;7 -->
<g id="edge7" class="edge">
<title>6&#45;&gt;7</title>
<path fill="none" stroke="black" d="M115,-1312.28C115,-1304.65 115,-1295.9 115,-1287.56"/>
<polygon fill="black" stroke="black" points="118.5,-1287.71 115,-1277.71 111.5,-1287.71 118.5,-1287.71"/>
</g>
<!-- 8 -->
<g id="node9" class="node">
<title>8</title>
<polygon fill="#c1ffc1" stroke="none" points="208,-1194.75 22,-1194.75 22,-1149.25 208,-1149.25 208,-1194.75"/>
<polygon fill="none" stroke="black" points="22,-1149.25 22,-1194.75 78.5,-1194.75 78.5,-1149.25 22,-1149.25"/>
<text xml:space="preserve" text-anchor="start" x="27" y="-1174.25" font-family="Linux libertine" font-size="10.00">MaxPool2d</text>
<text xml:space="preserve" text-anchor="start" x="33.75" y="-1161.5" font-family="Linux libertine" font-size="10.00">depth:2</text>
<polygon fill="none" stroke="black" points="78.5,-1172 78.5,-1194.75 122.25,-1194.75 122.25,-1172 78.5,-1172"/>
<text xml:space="preserve" text-anchor="start" x="88" y="-1179.25" font-family="Linux libertine" font-size="10.00">input:</text>
<polygon fill="none" stroke="black" points="122.25,-1172 122.25,-1194.75 208,-1194.75 208,-1172 122.25,-1172"/>
<text xml:space="preserve" text-anchor="start" x="127.25" y="-1179.25" font-family="Linux libertine" font-size="10.00">(1, 64, 112, 112) </text>
<polygon fill="none" stroke="black" points="78.5,-1149.25 78.5,-1172 122.25,-1172 122.25,-1149.25 78.5,-1149.25"/>
<text xml:space="preserve" text-anchor="start" x="83.5" y="-1156.5" font-family="Linux libertine" font-size="10.00">output: </text>
<polygon fill="none" stroke="black" points="122.25,-1149.25 122.25,-1172 208,-1172 208,-1149.25 122.25,-1149.25"/>
<text xml:space="preserve" text-anchor="start" x="132.5" y="-1156.5" font-family="Linux libertine" font-size="10.00">(1, 64, 56, 56) </text>
</g>
<!-- 7&#45;&gt;8 -->
<g id="edge8" class="edge">
<title>7&#45;&gt;8</title>
<path fill="none" stroke="black" d="M115,-1230.78C115,-1223.15 115,-1214.4 115,-1206.06"/>
<polygon fill="black" stroke="black" points="118.5,-1206.21 115,-1196.21 111.5,-1206.21 118.5,-1206.21"/>
</g>
<!-- 9 -->
<g id="node10" class="node">
<title>9</title>
<polygon fill="#c1ffc1" stroke="none" points="198.62,-1113.25 31.38,-1113.25 31.38,-1067.75 198.62,-1067.75 198.62,-1113.25"/>
<polygon fill="none" stroke="black" points="31.38,-1067.75 31.38,-1113.25 74.38,-1113.25 74.38,-1067.75 31.38,-1067.75"/>
<text xml:space="preserve" text-anchor="start" x="36.75" y="-1092.75" font-family="Linux libertine" font-size="10.00">Conv2d</text>
<text xml:space="preserve" text-anchor="start" x="36.38" y="-1080" font-family="Linux libertine" font-size="10.00">depth:2</text>
<polygon fill="none" stroke="black" points="74.38,-1090.5 74.38,-1113.25 118.12,-1113.25 118.12,-1090.5 74.38,-1090.5"/>
<text xml:space="preserve" text-anchor="start" x="83.88" y="-1097.75" font-family="Linux libertine" font-size="10.00">input:</text>
<polygon fill="none" stroke="black" points="118.12,-1090.5 118.12,-1113.25 198.62,-1113.25 198.62,-1090.5 118.12,-1090.5"/>
<text xml:space="preserve" text-anchor="start" x="125.75" y="-1097.75" font-family="Linux libertine" font-size="10.00">(1, 64, 56, 56) </text>
<polygon fill="none" stroke="black" points="74.38,-1067.75 74.38,-1090.5 118.12,-1090.5 118.12,-1067.75 74.38,-1067.75"/>
<text xml:space="preserve" text-anchor="start" x="79.38" y="-1075" font-family="Linux libertine" font-size="10.00">output: </text>
<polygon fill="none" stroke="black" points="118.12,-1067.75 118.12,-1090.5 198.62,-1090.5 198.62,-1067.75 118.12,-1067.75"/>
<text xml:space="preserve" text-anchor="start" x="123.12" y="-1075" font-family="Linux libertine" font-size="10.00">(1, 128, 56, 56) </text>
</g>
<!-- 8&#45;&gt;9 -->
<g id="edge9" class="edge">
<title>8&#45;&gt;9</title>
<path fill="none" stroke="black" d="M115,-1149.28C115,-1141.65 115,-1132.9 115,-1124.56"/>
<polygon fill="black" stroke="black" points="118.5,-1124.71 115,-1114.71 111.5,-1124.71 118.5,-1124.71"/>
</g>
<!-- 10 -->
<g id="node11" class="node">
<title>10</title>
<polygon fill="#c1ffc1" stroke="none" points="211.38,-1031.75 18.62,-1031.75 18.62,-986.25 211.38,-986.25 211.38,-1031.75"/>
<polygon fill="none" stroke="black" points="18.62,-986.25 18.62,-1031.75 87.12,-1031.75 87.12,-986.25 18.62,-986.25"/>
<text xml:space="preserve" text-anchor="start" x="23.62" y="-1011.25" font-family="Linux libertine" font-size="10.00">BatchNorm2d</text>
<text xml:space="preserve" text-anchor="start" x="36.38" y="-998.5" font-family="Linux libertine" font-size="10.00">depth:2</text>
<polygon fill="none" stroke="black" points="87.12,-1009 87.12,-1031.75 130.88,-1031.75 130.88,-1009 87.12,-1009"/>
<text xml:space="preserve" text-anchor="start" x="96.62" y="-1016.25" font-family="Linux libertine" font-size="10.00">input:</text>
<polygon fill="none" stroke="black" points="130.88,-1009 130.88,-1031.75 211.38,-1031.75 211.38,-1009 130.88,-1009"/>
<text xml:space="preserve" text-anchor="start" x="135.88" y="-1016.25" font-family="Linux libertine" font-size="10.00">(1, 128, 56, 56) </text>
<polygon fill="none" stroke="black" points="87.12,-986.25 87.12,-1009 130.88,-1009 130.88,-986.25 87.12,-986.25"/>
<text xml:space="preserve" text-anchor="start" x="92.12" y="-993.5" font-family="Linux libertine" font-size="10.00">output: </text>
<polygon fill="none" stroke="black" points="130.88,-986.25 130.88,-1009 211.38,-1009 211.38,-986.25 130.88,-986.25"/>
<text xml:space="preserve" text-anchor="start" x="135.88" y="-993.5" font-family="Linux libertine" font-size="10.00">(1, 128, 56, 56) </text>
</g>
<!-- 9&#45;&gt;10 -->
<g id="edge10" class="edge">
<title>9&#45;&gt;10</title>
<path fill="none" stroke="black" d="M115,-1067.78C115,-1060.15 115,-1051.4 115,-1043.06"/>
<polygon fill="black" stroke="black" points="118.5,-1043.21 115,-1033.21 111.5,-1043.21 118.5,-1043.21"/>
</g>
<!-- 11 -->
<g id="node12" class="node">
<title>11</title>
<polygon fill="#c1ffc1" stroke="none" points="198.62,-950.25 31.38,-950.25 31.38,-904.75 198.62,-904.75 198.62,-950.25"/>
<polygon fill="none" stroke="black" points="31.38,-904.75 31.38,-950.25 74.38,-950.25 74.38,-904.75 31.38,-904.75"/>
<text xml:space="preserve" text-anchor="start" x="41.25" y="-929.75" font-family="Linux libertine" font-size="10.00">ReLU</text>
<text xml:space="preserve" text-anchor="start" x="36.38" y="-917" font-family="Linux libertine" font-size="10.00">depth:2</text>
<polygon fill="none" stroke="black" points="74.38,-927.5 74.38,-950.25 118.12,-950.25 118.12,-927.5 74.38,-927.5"/>
<text xml:space="preserve" text-anchor="start" x="83.88" y="-934.75" font-family="Linux libertine" font-size="10.00">input:</text>
<polygon fill="none" stroke="black" points="118.12,-927.5 118.12,-950.25 198.62,-950.25 198.62,-927.5 118.12,-927.5"/>
<text xml:space="preserve" text-anchor="start" x="123.12" y="-934.75" font-family="Linux libertine" font-size="10.00">(1, 128, 56, 56) </text>
<polygon fill="none" stroke="black" points="74.38,-904.75 74.38,-927.5 118.12,-927.5 118.12,-904.75 74.38,-904.75"/>
<text xml:space="preserve" text-anchor="start" x="79.38" y="-912" font-family="Linux libertine" font-size="10.00">output: </text>
<polygon fill="none" stroke="black" points="118.12,-904.75 118.12,-927.5 198.62,-927.5 198.62,-904.75 118.12,-904.75"/>
<text xml:space="preserve" text-anchor="start" x="123.12" y="-912" font-family="Linux libertine" font-size="10.00">(1, 128, 56, 56) </text>
</g>
<!-- 10&#45;&gt;11 -->
<g id="edge11" class="edge">
<title>10&#45;&gt;11</title>
<path fill="none" stroke="black" d="M115,-986.28C115,-978.65 115,-969.9 115,-961.56"/>
<polygon fill="black" stroke="black" points="118.5,-961.71 115,-951.71 111.5,-961.71 118.5,-961.71"/>
</g>
<!-- 12 -->
<g id="node13" class="node">
<title>12</title>
<polygon fill="#c1ffc1" stroke="none" points="205.38,-868.75 24.62,-868.75 24.62,-823.25 205.38,-823.25 205.38,-868.75"/>
<polygon fill="none" stroke="black" points="24.62,-823.25 24.62,-868.75 81.12,-868.75 81.12,-823.25 24.62,-823.25"/>
<text xml:space="preserve" text-anchor="start" x="29.62" y="-848.25" font-family="Linux libertine" font-size="10.00">MaxPool2d</text>
<text xml:space="preserve" text-anchor="start" x="36.38" y="-835.5" font-family="Linux libertine" font-size="10.00">depth:2</text>
<polygon fill="none" stroke="black" points="81.12,-846 81.12,-868.75 124.88,-868.75 124.88,-846 81.12,-846"/>
<text xml:space="preserve" text-anchor="start" x="90.62" y="-853.25" font-family="Linux libertine" font-size="10.00">input:</text>
<polygon fill="none" stroke="black" points="124.88,-846 124.88,-868.75 205.38,-868.75 205.38,-846 124.88,-846"/>
<text xml:space="preserve" text-anchor="start" x="129.88" y="-853.25" font-family="Linux libertine" font-size="10.00">(1, 128, 56, 56) </text>
<polygon fill="none" stroke="black" points="81.12,-823.25 81.12,-846 124.88,-846 124.88,-823.25 81.12,-823.25"/>
<text xml:space="preserve" text-anchor="start" x="86.12" y="-830.5" font-family="Linux libertine" font-size="10.00">output: </text>
<polygon fill="none" stroke="black" points="124.88,-823.25 124.88,-846 205.38,-846 205.38,-823.25 124.88,-823.25"/>
<text xml:space="preserve" text-anchor="start" x="129.88" y="-830.5" font-family="Linux libertine" font-size="10.00">(1, 128, 28, 28) </text>
</g>
<!-- 11&#45;&gt;12 -->
<g id="edge12" class="edge">
<title>11&#45;&gt;12</title>
<path fill="none" stroke="black" d="M115,-904.78C115,-897.15 115,-888.4 115,-880.06"/>
<polygon fill="black" stroke="black" points="118.5,-880.21 115,-870.21 111.5,-880.21 118.5,-880.21"/>
</g>
<!-- 13 -->
<g id="node14" class="node">
<title>13</title>
<polygon fill="#c1ffc1" stroke="none" points="223.38,-787.25 6.62,-787.25 6.62,-741.75 223.38,-741.75 223.38,-787.25"/>
<polygon fill="none" stroke="black" points="6.62,-741.75 6.62,-787.25 99.12,-787.25 99.12,-741.75 6.62,-741.75"/>
<text xml:space="preserve" text-anchor="start" x="11.62" y="-766.75" font-family="Linux libertine" font-size="10.00">AdaptiveAvgPool2d</text>
<text xml:space="preserve" text-anchor="start" x="36.38" y="-754" font-family="Linux libertine" font-size="10.00">depth:1</text>
<polygon fill="none" stroke="black" points="99.12,-764.5 99.12,-787.25 142.88,-787.25 142.88,-764.5 99.12,-764.5"/>
<text xml:space="preserve" text-anchor="start" x="108.62" y="-771.75" font-family="Linux libertine" font-size="10.00">input:</text>
<polygon fill="none" stroke="black" points="142.88,-764.5 142.88,-787.25 223.38,-787.25 223.38,-764.5 142.88,-764.5"/>
<text xml:space="preserve" text-anchor="start" x="147.88" y="-771.75" font-family="Linux libertine" font-size="10.00">(1, 128, 28, 28) </text>
<polygon fill="none" stroke="black" points="99.12,-741.75 99.12,-764.5 142.88,-764.5 142.88,-741.75 99.12,-741.75"/>
<text xml:space="preserve" text-anchor="start" x="104.12" y="-749" font-family="Linux libertine" font-size="10.00">output: </text>
<polygon fill="none" stroke="black" points="142.88,-741.75 142.88,-764.5 223.38,-764.5 223.38,-741.75 142.88,-741.75"/>
<text xml:space="preserve" text-anchor="start" x="153.12" y="-749" font-family="Linux libertine" font-size="10.00">(1, 128, 4, 4) </text>
</g>
<!-- 12&#45;&gt;13 -->
<g id="edge13" class="edge">
<title>12&#45;&gt;13</title>
<path fill="none" stroke="black" d="M115,-823.28C115,-815.65 115,-806.9 115,-798.56"/>
<polygon fill="black" stroke="black" points="118.5,-798.71 115,-788.71 111.5,-798.71 118.5,-798.71"/>
</g>
<!-- 14 -->
<g id="node15" class="node">
<title>14</title>
<polygon fill="#c1ffc1" stroke="none" points="193.38,-703.5 36.62,-703.5 36.62,-658 193.38,-658 193.38,-703.5"/>
<polygon fill="none" stroke="black" points="36.62,-658 36.62,-703.5 79.62,-703.5 79.62,-658 36.62,-658"/>
<text xml:space="preserve" text-anchor="start" x="43.5" y="-683" font-family="Linux libertine" font-size="10.00">Flatten</text>
<text xml:space="preserve" text-anchor="start" x="41.62" y="-670.25" font-family="Linux libertine" font-size="10.00">depth:2</text>
<polygon fill="none" stroke="black" points="79.62,-680.75 79.62,-703.5 123.38,-703.5 123.38,-680.75 79.62,-680.75"/>
<text xml:space="preserve" text-anchor="start" x="89.12" y="-688" font-family="Linux libertine" font-size="10.00">input:</text>
<polygon fill="none" stroke="black" points="123.38,-680.75 123.38,-703.5 193.38,-703.5 193.38,-680.75 123.38,-680.75"/>
<text xml:space="preserve" text-anchor="start" x="128.38" y="-688" font-family="Linux libertine" font-size="10.00">(1, 128, 4, 4) </text>
<polygon fill="none" stroke="black" points="79.62,-658 79.62,-680.75 123.38,-680.75 123.38,-658 79.62,-658"/>
<text xml:space="preserve" text-anchor="start" x="84.62" y="-665.25" font-family="Linux libertine" font-size="10.00">output: </text>
<polygon fill="none" stroke="black" points="123.38,-658 123.38,-680.75 193.38,-680.75 193.38,-658 123.38,-658"/>
<text xml:space="preserve" text-anchor="start" x="137" y="-665.25" font-family="Linux libertine" font-size="10.00">(1, 2048) </text>
</g>
<!-- 13&#45;&gt;14 -->
<g id="edge14" class="edge">
<title>13&#45;&gt;14</title>
<path fill="none" stroke="black" d="M115,-742.02C115,-733.64 115,-723.84 115,-714.61"/>
<polygon fill="black" stroke="black" points="118.5,-714.88 115,-704.88 111.5,-714.88 118.5,-714.88"/>
</g>
<!-- 15 -->
<g id="node16" class="node">
<title>15</title>
<polygon fill="#c1ffc1" stroke="none" points="184.75,-622 45.25,-622 45.25,-576.5 184.75,-576.5 184.75,-622"/>
<polygon fill="none" stroke="black" points="45.25,-576.5 45.25,-622 88.25,-622 88.25,-576.5 45.25,-576.5"/>
<text xml:space="preserve" text-anchor="start" x="53.25" y="-601.5" font-family="Linux libertine" font-size="10.00">Linear</text>
<text xml:space="preserve" text-anchor="start" x="50.25" y="-588.75" font-family="Linux libertine" font-size="10.00">depth:2</text>
<polygon fill="none" stroke="black" points="88.25,-599.25 88.25,-622 132,-622 132,-599.25 88.25,-599.25"/>
<text xml:space="preserve" text-anchor="start" x="97.75" y="-606.5" font-family="Linux libertine" font-size="10.00">input:</text>
<polygon fill="none" stroke="black" points="132,-599.25 132,-622 184.75,-622 184.75,-599.25 132,-599.25"/>
<text xml:space="preserve" text-anchor="start" x="137" y="-606.5" font-family="Linux libertine" font-size="10.00">(1, 2048) </text>
<polygon fill="none" stroke="black" points="88.25,-576.5 88.25,-599.25 132,-599.25 132,-576.5 88.25,-576.5"/>
<text xml:space="preserve" text-anchor="start" x="93.25" y="-583.75" font-family="Linux libertine" font-size="10.00">output: </text>
<polygon fill="none" stroke="black" points="132,-576.5 132,-599.25 184.75,-599.25 184.75,-576.5 132,-576.5"/>
<text xml:space="preserve" text-anchor="start" x="139.62" y="-583.75" font-family="Linux libertine" font-size="10.00">(1, 256) </text>
</g>
<!-- 14&#45;&gt;15 -->
<g id="edge15" class="edge">
<title>14&#45;&gt;15</title>
<path fill="none" stroke="black" d="M115,-658.03C115,-650.4 115,-641.65 115,-633.31"/>
<polygon fill="black" stroke="black" points="118.5,-633.46 115,-623.46 111.5,-633.46 118.5,-633.46"/>
</g>
<!-- 16 -->
<g id="node17" class="node">
<title>16</title>
<polygon fill="#c1ffc1" stroke="none" points="182.12,-540.5 47.88,-540.5 47.88,-495 182.12,-495 182.12,-540.5"/>
<polygon fill="none" stroke="black" points="47.88,-495 47.88,-540.5 90.88,-540.5 90.88,-495 47.88,-495"/>
<text xml:space="preserve" text-anchor="start" x="57.75" y="-520" font-family="Linux libertine" font-size="10.00">ReLU</text>
<text xml:space="preserve" text-anchor="start" x="52.88" y="-507.25" font-family="Linux libertine" font-size="10.00">depth:2</text>
<polygon fill="none" stroke="black" points="90.88,-517.75 90.88,-540.5 134.62,-540.5 134.62,-517.75 90.88,-517.75"/>
<text xml:space="preserve" text-anchor="start" x="100.38" y="-525" font-family="Linux libertine" font-size="10.00">input:</text>
<polygon fill="none" stroke="black" points="134.62,-517.75 134.62,-540.5 182.12,-540.5 182.12,-517.75 134.62,-517.75"/>
<text xml:space="preserve" text-anchor="start" x="139.62" y="-525" font-family="Linux libertine" font-size="10.00">(1, 256) </text>
<polygon fill="none" stroke="black" points="90.88,-495 90.88,-517.75 134.62,-517.75 134.62,-495 90.88,-495"/>
<text xml:space="preserve" text-anchor="start" x="95.88" y="-502.25" font-family="Linux libertine" font-size="10.00">output: </text>
<polygon fill="none" stroke="black" points="134.62,-495 134.62,-517.75 182.12,-517.75 182.12,-495 134.62,-495"/>
<text xml:space="preserve" text-anchor="start" x="139.62" y="-502.25" font-family="Linux libertine" font-size="10.00">(1, 256) </text>
</g>
<!-- 15&#45;&gt;16 -->
<g id="edge16" class="edge">
<title>15&#45;&gt;16</title>
<path fill="none" stroke="black" d="M115,-576.53C115,-568.9 115,-560.15 115,-551.81"/>
<polygon fill="black" stroke="black" points="118.5,-551.96 115,-541.96 111.5,-551.96 118.5,-551.96"/>
</g>
<!-- 17 -->
<g id="node18" class="node">
<title>17</title>
<polygon fill="#c1ffc1" stroke="none" points="182.88,-459 47.12,-459 47.12,-413.5 182.88,-413.5 182.88,-459"/>
<polygon fill="none" stroke="black" points="47.12,-413.5 47.12,-459 91.62,-459 91.62,-413.5 47.12,-413.5"/>
<text xml:space="preserve" text-anchor="start" x="52.12" y="-438.5" font-family="Linux libertine" font-size="10.00">Dropout</text>
<text xml:space="preserve" text-anchor="start" x="52.88" y="-425.75" font-family="Linux libertine" font-size="10.00">depth:2</text>
<polygon fill="none" stroke="black" points="91.62,-436.25 91.62,-459 135.38,-459 135.38,-436.25 91.62,-436.25"/>
<text xml:space="preserve" text-anchor="start" x="101.12" y="-443.5" font-family="Linux libertine" font-size="10.00">input:</text>
<polygon fill="none" stroke="black" points="135.38,-436.25 135.38,-459 182.88,-459 182.88,-436.25 135.38,-436.25"/>
<text xml:space="preserve" text-anchor="start" x="140.38" y="-443.5" font-family="Linux libertine" font-size="10.00">(1, 256) </text>
<polygon fill="none" stroke="black" points="91.62,-413.5 91.62,-436.25 135.38,-436.25 135.38,-413.5 91.62,-413.5"/>
<text xml:space="preserve" text-anchor="start" x="96.62" y="-420.75" font-family="Linux libertine" font-size="10.00">output: </text>
<polygon fill="none" stroke="black" points="135.38,-413.5 135.38,-436.25 182.88,-436.25 182.88,-413.5 135.38,-413.5"/>
<text xml:space="preserve" text-anchor="start" x="140.38" y="-420.75" font-family="Linux libertine" font-size="10.00">(1, 256) </text>
</g>
<!-- 16&#45;&gt;17 -->
<g id="edge17" class="edge">
<title>16&#45;&gt;17</title>
<path fill="none" stroke="black" d="M115,-495.03C115,-487.4 115,-478.65 115,-470.31"/>
<polygon fill="black" stroke="black" points="118.5,-470.46 115,-460.46 111.5,-470.46 118.5,-470.46"/>
</g>
<!-- 18 -->
<g id="node19" class="node">
<title>18</title>
<polygon fill="#c1ffc1" stroke="none" points="182.12,-377.5 47.88,-377.5 47.88,-332 182.12,-332 182.12,-377.5"/>
<polygon fill="none" stroke="black" points="47.88,-332 47.88,-377.5 90.88,-377.5 90.88,-332 47.88,-332"/>
<text xml:space="preserve" text-anchor="start" x="55.88" y="-357" font-family="Linux libertine" font-size="10.00">Linear</text>
<text xml:space="preserve" text-anchor="start" x="52.88" y="-344.25" font-family="Linux libertine" font-size="10.00">depth:2</text>
<polygon fill="none" stroke="black" points="90.88,-354.75 90.88,-377.5 134.62,-377.5 134.62,-354.75 90.88,-354.75"/>
<text xml:space="preserve" text-anchor="start" x="100.38" y="-362" font-family="Linux libertine" font-size="10.00">input:</text>
<polygon fill="none" stroke="black" points="134.62,-354.75 134.62,-377.5 182.12,-377.5 182.12,-354.75 134.62,-354.75"/>
<text xml:space="preserve" text-anchor="start" x="139.62" y="-362" font-family="Linux libertine" font-size="10.00">(1, 256) </text>
<polygon fill="none" stroke="black" points="90.88,-332 90.88,-354.75 134.62,-354.75 134.62,-332 90.88,-332"/>
<text xml:space="preserve" text-anchor="start" x="95.88" y="-339.25" font-family="Linux libertine" font-size="10.00">output: </text>
<polygon fill="none" stroke="black" points="134.62,-332 134.62,-354.75 182.12,-354.75 182.12,-332 134.62,-332"/>
<text xml:space="preserve" text-anchor="start" x="139.62" y="-339.25" font-family="Linux libertine" font-size="10.00">(1, 128) </text>
</g>
<!-- 17&#45;&gt;18 -->
<g id="edge18" class="edge">
<title>17&#45;&gt;18</title>
<path fill="none" stroke="black" d="M115,-413.53C115,-405.9 115,-397.15 115,-388.81"/>
<polygon fill="black" stroke="black" points="118.5,-388.96 115,-378.96 111.5,-388.96 118.5,-388.96"/>
</g>
<!-- 19 -->
<g id="node20" class="node">
<title>19</title>
<polygon fill="#c1ffc1" stroke="none" points="182.12,-296 47.88,-296 47.88,-250.5 182.12,-250.5 182.12,-296"/>
<polygon fill="none" stroke="black" points="47.88,-250.5 47.88,-296 90.88,-296 90.88,-250.5 47.88,-250.5"/>
<text xml:space="preserve" text-anchor="start" x="57.75" y="-275.5" font-family="Linux libertine" font-size="10.00">ReLU</text>
<text xml:space="preserve" text-anchor="start" x="52.88" y="-262.75" font-family="Linux libertine" font-size="10.00">depth:2</text>
<polygon fill="none" stroke="black" points="90.88,-273.25 90.88,-296 134.62,-296 134.62,-273.25 90.88,-273.25"/>
<text xml:space="preserve" text-anchor="start" x="100.38" y="-280.5" font-family="Linux libertine" font-size="10.00">input:</text>
<polygon fill="none" stroke="black" points="134.62,-273.25 134.62,-296 182.12,-296 182.12,-273.25 134.62,-273.25"/>
<text xml:space="preserve" text-anchor="start" x="139.62" y="-280.5" font-family="Linux libertine" font-size="10.00">(1, 128) </text>
<polygon fill="none" stroke="black" points="90.88,-250.5 90.88,-273.25 134.62,-273.25 134.62,-250.5 90.88,-250.5"/>
<text xml:space="preserve" text-anchor="start" x="95.88" y="-257.75" font-family="Linux libertine" font-size="10.00">output: </text>
<polygon fill="none" stroke="black" points="134.62,-250.5 134.62,-273.25 182.12,-273.25 182.12,-250.5 134.62,-250.5"/>
<text xml:space="preserve" text-anchor="start" x="139.62" y="-257.75" font-family="Linux libertine" font-size="10.00">(1, 128) </text>
</g>
<!-- 18&#45;&gt;19 -->
<g id="edge19" class="edge">
<title>18&#45;&gt;19</title>
<path fill="none" stroke="black" d="M115,-332.03C115,-324.4 115,-315.65 115,-307.31"/>
<polygon fill="black" stroke="black" points="118.5,-307.46 115,-297.46 111.5,-307.46 118.5,-307.46"/>
</g>
<!-- 20 -->
<g id="node21" class="node">
<title>20</title>
<polygon fill="#c1ffc1" stroke="none" points="182.88,-214.5 47.12,-214.5 47.12,-169 182.88,-169 182.88,-214.5"/>
<polygon fill="none" stroke="black" points="47.12,-169 47.12,-214.5 91.62,-214.5 91.62,-169 47.12,-169"/>
<text xml:space="preserve" text-anchor="start" x="52.12" y="-194" font-family="Linux libertine" font-size="10.00">Dropout</text>
<text xml:space="preserve" text-anchor="start" x="52.88" y="-181.25" font-family="Linux libertine" font-size="10.00">depth:2</text>
<polygon fill="none" stroke="black" points="91.62,-191.75 91.62,-214.5 135.38,-214.5 135.38,-191.75 91.62,-191.75"/>
<text xml:space="preserve" text-anchor="start" x="101.12" y="-199" font-family="Linux libertine" font-size="10.00">input:</text>
<polygon fill="none" stroke="black" points="135.38,-191.75 135.38,-214.5 182.88,-214.5 182.88,-191.75 135.38,-191.75"/>
<text xml:space="preserve" text-anchor="start" x="140.38" y="-199" font-family="Linux libertine" font-size="10.00">(1, 128) </text>
<polygon fill="none" stroke="black" points="91.62,-169 91.62,-191.75 135.38,-191.75 135.38,-169 91.62,-169"/>
<text xml:space="preserve" text-anchor="start" x="96.62" y="-176.25" font-family="Linux libertine" font-size="10.00">output: </text>
<polygon fill="none" stroke="black" points="135.38,-169 135.38,-191.75 182.88,-191.75 182.88,-169 135.38,-169"/>
<text xml:space="preserve" text-anchor="start" x="140.38" y="-176.25" font-family="Linux libertine" font-size="10.00">(1, 128) </text>
</g>
<!-- 19&#45;&gt;20 -->
<g id="edge20" class="edge">
<title>19&#45;&gt;20</title>
<path fill="none" stroke="black" d="M115,-250.53C115,-242.9 115,-234.15 115,-225.81"/>
<polygon fill="black" stroke="black" points="118.5,-225.96 115,-215.96 111.5,-225.96 118.5,-225.96"/>
</g>
<!-- 21 -->
<g id="node22" class="node">
<title>21</title>
<polygon fill="#c1ffc1" stroke="none" points="182.12,-133 47.88,-133 47.88,-87.5 182.12,-87.5 182.12,-133"/>
<polygon fill="none" stroke="black" points="47.88,-87.5 47.88,-133 90.88,-133 90.88,-87.5 47.88,-87.5"/>
<text xml:space="preserve" text-anchor="start" x="55.88" y="-112.5" font-family="Linux libertine" font-size="10.00">Linear</text>
<text xml:space="preserve" text-anchor="start" x="52.88" y="-99.75" font-family="Linux libertine" font-size="10.00">depth:2</text>
<polygon fill="none" stroke="black" points="90.88,-110.25 90.88,-133 134.62,-133 134.62,-110.25 90.88,-110.25"/>
<text xml:space="preserve" text-anchor="start" x="100.38" y="-117.5" font-family="Linux libertine" font-size="10.00">input:</text>
<polygon fill="none" stroke="black" points="134.62,-110.25 134.62,-133 182.12,-133 182.12,-110.25 134.62,-110.25"/>
<text xml:space="preserve" text-anchor="start" x="139.62" y="-117.5" font-family="Linux libertine" font-size="10.00">(1, 128) </text>
<polygon fill="none" stroke="black" points="90.88,-87.5 90.88,-110.25 134.62,-110.25 134.62,-87.5 90.88,-87.5"/>
<text xml:space="preserve" text-anchor="start" x="95.88" y="-94.75" font-family="Linux libertine" font-size="10.00">output: </text>
<polygon fill="none" stroke="black" points="134.62,-87.5 134.62,-110.25 182.12,-110.25 182.12,-87.5 134.62,-87.5"/>
<text xml:space="preserve" text-anchor="start" x="144.88" y="-94.75" font-family="Linux libertine" font-size="10.00">(1, 4) </text>
</g>
<!-- 20&#45;&gt;21 -->
<g id="edge21" class="edge">
<title>20&#45;&gt;21</title>
<path fill="none" stroke="black" d="M115,-169.03C115,-161.4 115,-152.65 115,-144.31"/>
<polygon fill="black" stroke="black" points="118.5,-144.46 115,-134.46 111.5,-144.46 118.5,-144.46"/>
</g>
<!-- 22 -->
<g id="node23" class="node">
<title>22</title>
<polygon fill="lightyellow" stroke="none" points="165.88,-51.5 64.12,-51.5 64.12,-16 165.88,-16 165.88,-51.5"/>
<polygon fill="none" stroke="black" points="64.12,-16 64.12,-51.5 131.88,-51.5 131.88,-16 64.12,-16"/>
<text xml:space="preserve" text-anchor="start" x="69.12" y="-36" font-family="Linux libertine" font-size="10.00">output&#45;tensor</text>
<text xml:space="preserve" text-anchor="start" x="81.5" y="-23.25" font-family="Linux libertine" font-size="10.00">depth:0</text>
<polygon fill="none" stroke="black" points="131.88,-16 131.88,-51.5 165.88,-51.5 165.88,-16 131.88,-16"/>
<text xml:space="preserve" text-anchor="start" x="136.88" y="-29.62" font-family="Linux libertine" font-size="10.00">(1, 4)</text>
</g>
<!-- 21&#45;&gt;22 -->
<g id="edge22" class="edge">
<title>21&#45;&gt;22</title>
<path fill="none" stroke="black" d="M115,-87.7C115,-79.85 115,-70.85 115,-62.54"/>
<polygon fill="black" stroke="black" points="118.5,-62.56 115,-52.56 111.5,-62.56 118.5,-62.56"/>
</g>
</g>
</svg>
